<mxfile host="app.diagrams.net" modified="2023-12-22T15:58:18.548Z" agent="Mozilla/5.0 (Windows NT 10.0; Win64; x64) AppleWebKit/537.36 (KHTML, like Gecko) Chrome/120.0.0.0 Safari/537.36 Edg/120.0.0.0" etag="5tG1Io0JnE-J9e__-mhm" version="22.1.11" type="device">
  <diagram name="Page-1" id="h_01j-mmxJisuqh42Wl0">
    <mxGraphModel dx="1558" dy="788" grid="1" gridSize="10" guides="1" tooltips="1" connect="1" arrows="1" fold="1" page="1" pageScale="1" pageWidth="827" pageHeight="1169" math="0" shadow="0">
      <root>
        <mxCell id="0" />
        <mxCell id="1" parent="0" />
        <mxCell id="mMqJF--JG0tdVyxqiHZT-1" value="" style="rounded=0;whiteSpace=wrap;html=1;" vertex="1" parent="1">
          <mxGeometry x="180" y="160" width="260" height="270" as="geometry" />
        </mxCell>
        <mxCell id="mMqJF--JG0tdVyxqiHZT-2" value="Admin" style="text;html=1;strokeColor=none;fillColor=none;align=center;verticalAlign=middle;whiteSpace=wrap;rounded=0;" vertex="1" parent="1">
          <mxGeometry x="270" y="180" width="60" height="30" as="geometry" />
        </mxCell>
        <mxCell id="mMqJF--JG0tdVyxqiHZT-3" value="Quản lý tài khoản" style="rounded=1;whiteSpace=wrap;html=1;" vertex="1" parent="1">
          <mxGeometry x="220" y="230" width="70" height="30" as="geometry" />
        </mxCell>
        <mxCell id="mMqJF--JG0tdVyxqiHZT-4" value="Xem thống kê" style="rounded=1;whiteSpace=wrap;html=1;" vertex="1" parent="1">
          <mxGeometry x="275" y="300" width="70" height="30" as="geometry" />
        </mxCell>
        <mxCell id="mMqJF--JG0tdVyxqiHZT-5" value="Quản lý cat&lt;br&gt;" style="rounded=1;whiteSpace=wrap;html=1;" vertex="1" parent="1">
          <mxGeometry x="330" y="230" width="70" height="30" as="geometry" />
        </mxCell>
        <mxCell id="mMqJF--JG0tdVyxqiHZT-6" value="" style="endArrow=none;html=1;rounded=0;exitX=1;exitY=0.75;exitDx=0;exitDy=0;" edge="1" parent="1" source="mMqJF--JG0tdVyxqiHZT-5" target="mMqJF--JG0tdVyxqiHZT-7">
          <mxGeometry width="50" height="50" relative="1" as="geometry">
            <mxPoint x="450" y="280" as="sourcePoint" />
            <mxPoint x="530" y="230" as="targetPoint" />
            <Array as="points">
              <mxPoint x="460" y="250" />
              <mxPoint x="480" y="250" />
            </Array>
          </mxGeometry>
        </mxCell>
        <mxCell id="mMqJF--JG0tdVyxqiHZT-7" value="" style="whiteSpace=wrap;html=1;aspect=fixed;" vertex="1" parent="1">
          <mxGeometry x="530" y="170" width="250" height="250" as="geometry" />
        </mxCell>
        <mxCell id="mMqJF--JG0tdVyxqiHZT-8" value="sản phẩm" style="rounded=1;whiteSpace=wrap;html=1;" vertex="1" parent="1">
          <mxGeometry x="620" y="270" width="60" height="42.5" as="geometry" />
        </mxCell>
        <mxCell id="mMqJF--JG0tdVyxqiHZT-9" value="xem" style="rounded=1;whiteSpace=wrap;html=1;" vertex="1" parent="1">
          <mxGeometry x="590" y="180" width="120" height="60" as="geometry" />
        </mxCell>
        <mxCell id="mMqJF--JG0tdVyxqiHZT-12" value="" style="whiteSpace=wrap;html=1;aspect=fixed;" vertex="1" parent="1">
          <mxGeometry x="510" y="450" width="250" height="250" as="geometry" />
        </mxCell>
        <mxCell id="mMqJF--JG0tdVyxqiHZT-13" value="sản phẩm" style="rounded=1;whiteSpace=wrap;html=1;" vertex="1" parent="1">
          <mxGeometry x="605" y="580" width="60" height="42.5" as="geometry" />
        </mxCell>
        <mxCell id="mMqJF--JG0tdVyxqiHZT-14" value="Chỉnh sửa" style="rounded=1;whiteSpace=wrap;html=1;" vertex="1" parent="1">
          <mxGeometry x="575" y="490" width="120" height="60" as="geometry" />
        </mxCell>
        <mxCell id="mMqJF--JG0tdVyxqiHZT-16" value="Auth" style="rounded=0;whiteSpace=wrap;html=1;" vertex="1" parent="1">
          <mxGeometry x="125" y="850" width="260" height="280" as="geometry" />
        </mxCell>
        <mxCell id="mMqJF--JG0tdVyxqiHZT-17" value="User" style="text;html=1;strokeColor=none;fillColor=none;align=center;verticalAlign=middle;whiteSpace=wrap;rounded=0;" vertex="1" parent="1">
          <mxGeometry x="285" y="750" width="60" height="30" as="geometry" />
        </mxCell>
        <mxCell id="mMqJF--JG0tdVyxqiHZT-18" value="Trang chủ" style="rounded=0;whiteSpace=wrap;html=1;" vertex="1" parent="1">
          <mxGeometry x="460" y="850" width="260" height="280" as="geometry" />
        </mxCell>
        <mxCell id="mMqJF--JG0tdVyxqiHZT-19" value="danh sách sản phẩm" style="rounded=0;whiteSpace=wrap;html=1;" vertex="1" parent="1">
          <mxGeometry x="460" y="1169" width="260" height="280" as="geometry" />
        </mxCell>
        <mxCell id="mMqJF--JG0tdVyxqiHZT-20" value="Chi tiết sản phẩm" style="rounded=0;whiteSpace=wrap;html=1;" vertex="1" parent="1">
          <mxGeometry x="110" y="1169" width="260" height="280" as="geometry" />
        </mxCell>
        <mxCell id="mMqJF--JG0tdVyxqiHZT-21" value="Giỏ hàng" style="rounded=0;whiteSpace=wrap;html=1;" vertex="1" parent="1">
          <mxGeometry x="125" y="1480" width="260" height="280" as="geometry" />
        </mxCell>
      </root>
    </mxGraphModel>
  </diagram>
</mxfile>
